HIERARCHY
ROOT hip
{
	OFFSET 0.000000 0.000000 0.000000 
	CHANNELS 6 Xposition Yposition Zposition Xrotation Zrotation Yrotation
	JOINT abdomen
	{
		OFFSET 0.000000 3.402643 0.000000 
		CHANNELS 3 Xrotation Zrotation Yrotation
		JOINT chest
		{
			OFFSET 0.000000 8.438565 -0.680529 
			CHANNELS 3 Xrotation Zrotation Yrotation
			JOINT neck
			{
				OFFSET 0.000000 10.207942 -0.272212 
				CHANNELS 3 Xrotation Zrotation Yrotation
				JOINT head
				{
					OFFSET 0.000000 3.130431 0.000000 
					CHANNELS 3 Xrotation Zrotation Yrotation
					End Site
					{
						OFFSET 0.000000 3.130435 0.000000 
					}
				}
			}
			JOINT lCollar
			{
				OFFSET 3.470700 6.669187 -0.816635 
				CHANNELS 3 Yrotation Zrotation Xrotation
				JOINT lShldr
				{
					OFFSET 3.198488 0.000000 0.000000 
					CHANNELS 3 Zrotation Yrotation Xrotation
					JOINT lForeArm
					{
						OFFSET 10.139888 0.000000 0.000000 
						CHANNELS 3 Yrotation Zrotation Xrotation
						JOINT lHand
						{
							OFFSET 8.370511 0.000000 0.000000 
							CHANNELS 3 Zrotation Yrotation Xrotation
							End Site
							{
								OFFSET 4.083176 0.000000 0.000000 
							}
						}
					}
				}
			}
			JOINT rCollar
			{
				OFFSET -3.470700 6.669187 -0.816635 
				CHANNELS 3 Yrotation Zrotation Xrotation
				JOINT rShldr
				{
					OFFSET -3.198488 0.000000 0.000000 
					CHANNELS 3 Zrotation Yrotation Xrotation
					JOINT rForeArm
					{
						OFFSET -10.139888 0.000000 0.000000 
						CHANNELS 3 Yrotation Zrotation Xrotation
						JOINT rHand
						{
							OFFSET -8.370511 0.000000 0.000000 
							CHANNELS 3 Zrotation Yrotation Xrotation
							End Site
							{
								OFFSET -4.083176 0.000000 0.000000 
							}
						}
					}
				}
			}
		}
	}
	JOINT lThigh
	{
		OFFSET 5.308129 -1.633274 1.361059 
		CHANNELS 3 Xrotation Zrotation Yrotation
		JOINT lShin
		{
			OFFSET -2.041588 -20.007561 0.000000 
			CHANNELS 3 Xrotation Zrotation Yrotation
			JOINT lFoot
			{
				OFFSET 0.000000 -19.190928 -1.224953 
				CHANNELS 3 Xrotation Yrotation Zrotation
				End Site
				{
					OFFSET 0.000000 -2.449906 4.627600 
				}
			}
		}
	}
	JOINT rThigh
	{
		OFFSET -5.308129 -1.633274 1.361059 
		CHANNELS 3 Xrotation Zrotation Yrotation
		JOINT rShin
		{
			OFFSET 2.041588 -20.007561 0.000000 
			CHANNELS 3 Xrotation Zrotation Yrotation
			JOINT rFoot
			{
				OFFSET 0.000000 -19.190928 -1.224953 
				CHANNELS 3 Xrotation Yrotation Zrotation
				End Site
				{
					OFFSET 0.000000 -2.449906 4.627600 
				}
			}
		}
	}
}
MOTION
Frames: 10
Frame Time: 0.033333
0.531233 37.000774 0.148402 2.652388 -15.277350 79.260574 0.000000 0.000000 0.000000 -7.441537 0.338918 6.615890 7.657296 -0.944116 -0.098693 -15.392274 0.651285 5.833162 38.928848 30.000000 -4.592871 6.569619 10.069427 -35.618866 15.080400 58.117104 -36.229115 -28.669786 -9.424650 -47.336864 -37.395428 -30.000000 -0.807401 -25.896414 -5.216208 41.609173 -66.421326 -0.183541 -56.252274 31.393694 19.922209 -72.232689 -29.715069 2.294329 15.360640 64.812859 18.832079 1.444160 -12.735370 -5.794054 -7.915702 -34.728199 -4.237771 1.291225 62.497303 -4.531013 3.839469 -1.517352 -13.732284 28.056570 
0.943982 39.970467 0.244520 2.240086 -15.535567 79.241882 0.000000 0.000000 0.000000 -10.059833 0.894243 6.735915 10.450767 -0.978950 -0.114995 -13.331187 0.561642 6.326577 39.338409 30.000000 -5.556145 8.703402 6.328110 -35.190681 10.911427 53.371452 -29.168425 -24.785563 -3.777291 -51.454773 -38.490971 -30.000000 -1.895494 -29.638926 -2.845991 41.229832 -56.733253 -2.024016 -58.640896 33.306282 11.320811 -74.179413 -21.016825 3.022754 16.762432 46.794506 16.177780 1.592127 -0.301838 -12.534057 -0.165198 -26.526646 -4.871965 0.681943 46.334850 -2.819383 2.657401 10.298681 -11.099137 27.968008 
1.189197 42.905384 0.294792 2.161374 -15.760820 78.951889 0.000000 0.000000 0.000000 -12.024575 1.289442 6.815281 12.485012 -1.526416 -0.160759 -11.720802 0.796721 7.117050 39.786762 30.000000 -6.535510 10.038428 2.851899 -34.954315 9.329630 48.856972 -23.502106 -23.338936 -1.126368 -53.086971 -39.624378 -30.000000 -3.377369 -32.824467 -0.275948 40.713291 -47.570690 -1.776985 -59.809849 35.147476 4.755229 -75.425659 -13.911942 3.552110 17.621580 30.605637 11.855109 1.513920 11.471643 -15.678815 8.272709 -19.545036 -5.623218 0.140764 30.611437 -1.040017 1.527321 20.981575 -10.449221 28.452940 
1.241318 45.601833 0.307255 2.303314 -15.749617 78.602631 0.000000 0.000000 0.000000 -12.973180 1.484570 6.855414 13.537795 -2.413088 -0.227559 -10.463262 1.190673 8.006560 40.253811 30.000000 -7.600032 10.323635 -0.099323 -34.863594 9.586125 44.998779 -18.630466 -23.815891 -1.160229 -53.166092 -40.785965 -30.000000 -5.288425 -34.816292 2.313703 39.969872 -39.907909 0.178291 -59.953659 37.492561 0.553816 -76.275452 -9.537081 3.765961 17.995512 20.669046 8.363242 1.323244 18.963198 -15.032202 13.685797 -14.724402 -6.385828 -0.273176 19.065128 0.361310 0.784536 28.149979 -11.758504 29.909542 
1.091781 47.891846 0.292111 2.521499 -15.337399 78.363800 0.000000 0.000000 0.000000 -12.660201 1.419716 6.839426 13.461545 -3.368873 -0.303633 -9.411041 1.541664 8.776250 40.702946 30.000000 -8.789061 9.378185 -2.170754 -34.865372 10.665583 42.085281 -14.446429 -25.148056 -3.064499 -52.178097 -41.850510 -30.000000 -7.459158 -34.945324 4.478666 39.123699 -34.683258 2.504169 -59.076252 40.220722 -1.289702 -76.924095 -7.976602 3.787208 18.099081 18.405895 6.880460 1.134320 20.989252 -12.706761 14.836252 -12.402769 -7.041465 -0.566840 14.253476 1.053670 0.539691 29.883549 -14.049693 30.905643 
0.769961 49.590256 0.271126 2.621815 -14.428872 78.417259 0.000000 0.000000 0.000000 -11.105524 1.082856 6.779683 12.460544 -3.847147 -0.326752 -8.482178 1.446897 9.135549 41.121262 30.000000 -10.016343 7.174807 -2.807360 -34.862404 10.496772 40.702080 -11.128977 -25.917156 -4.658255 -51.305687 -42.495895 -30.000000 -9.263552 -32.748230 5.261452 38.605137 -32.598568 2.175081 -57.512672 41.911274 -1.486821 -77.238876 -8.640529 3.874819 18.107220 23.164768 7.223392 0.887128 19.144672 -10.532892 12.510382 -12.493420 -7.379209 -0.630598 17.254478 1.047724 0.741206 25.951635 -15.861425 28.540344 
0.441339 50.940239 0.271707 2.510753 -13.493367 78.571915 0.000000 0.000000 0.000000 -9.483332 0.789839 6.713782 11.667336 -3.829257 -0.322520 -7.678345 1.003023 9.160228 41.408638 30.000000 -10.935766 5.046519 -2.735440 -34.836365 8.866696 40.339569 -8.283140 -26.057251 -5.287189 -50.981487 -42.637085 -30.000000 -10.141452 -30.400620 5.090491 38.520634 -31.987688 -0.492189 -55.432941 41.763882 -1.008827 -77.153618 -9.722889 4.244521 18.140862 29.278040 8.018831 0.714729 17.516472 -9.863787 9.461045 -13.209714 -7.332376 -0.609241 22.445362 0.800457 1.162192 21.691839 -16.124224 24.857756 
0.190433 51.995476 0.302398 2.214813 -12.978908 78.691338 0.000000 0.000000 0.000000 -8.653059 0.733741 6.704756 11.604733 -3.540838 -0.306005 -7.080758 0.526514 9.070918 41.529709 30.000000 -11.413743 3.841522 -2.719690 -34.801445 6.865808 40.486057 -6.197126 -26.054392 -5.394574 -50.953106 -42.430016 -30.000000 -10.167254 -29.193844 4.816091 38.565269 -32.242836 -3.715862 -52.936176 40.650639 0.050634 -76.828064 -10.487252 4.882016 18.302696 33.882690 8.683202 0.605077 16.575939 -10.784183 7.247609 -13.859948 -6.881324 -0.464136 26.741381 0.429554 1.486643 19.364357 -15.004717 22.204956 
0.047439 52.793510 0.356309 1.813814 -12.962471 78.684227 0.000000 0.000000 0.000000 -8.819546 0.936067 6.749320 12.285760 -3.235953 -0.284601 -6.709151 0.263730 9.068416 41.478256 30.000000 -11.441903 3.761786 -3.158722 -34.790359 5.299837 40.819424 -4.949840 -26.249460 -5.438772 -50.888519 -42.033485 -30.000000 -9.615507 -29.433498 4.929271 38.537018 -32.997028 -6.146681 -50.400200 39.530624 1.576989 -76.444038 -10.458077 5.624065 18.541655 35.607212 8.935672 0.549076 16.102505 -12.788544 6.629793 -14.010195 -6.170355 -0.254955 28.682323 -0.034016 1.559723 19.318611 -13.061119 21.487520 
-0.041008 53.334373 0.399263 1.564406 -13.139802 78.578041 0.000000 0.000000 0.000000 -9.386792 1.185093 6.806099 13.087960 -3.237307 -0.286788 -6.533475 0.339365 9.351560 41.277447 30.000000 -11.126758 4.273158 -3.834819 -34.794056 4.627450 41.195339 -4.504782 -26.915138 -5.885670 -50.492218 -41.695114 -30.000000 -8.986164 -30.362179 5.391355 38.410130 -34.046181 -6.898351 -48.805618 39.517200 3.500770 -76.131889 -9.694242 5.992122 18.723614 35.292622 8.989991 0.569924 15.171467 -14.477885 7.350274 -13.509380 -5.661500 -0.117679 28.560333 -0.502736 1.454502 20.001183 -11.617236 21.946135 
